<svg width="103" height="79" viewBox="0 0 103 79" fill="none" xmlns="http://www.w3.org/2000/svg">
<path d="M49.1693 0.446102C48.315 0.873287 47.6101 1.87718 39.7498 13.6462C35.0721 20.6521 30.9071 26.6968 30.4799 27.0599C29.7323 27.7221 28.5575 28.192 27.6604 28.192C26.3575 28.192 25.1827 27.423 15.2293 19.9686C6.38646 13.3472 4.72043 12.1724 3.93013 12.0443C1.79419 11.7239 0 13.2831 0 15.419C0 16.1239 5.38257 51.9009 6.08743 55.9165L6.21559 56.6H51.2626H96.2882L96.4163 56.0233C96.4804 55.6815 97.8901 46.6251 99.5562 35.8813C101.649 22.2327 102.525 15.9744 102.482 15.0986C102.397 14.052 102.29 13.7744 101.671 13.1336C100.795 12.2151 99.7911 11.8734 98.595 12.0443C97.8047 12.1724 96.1387 13.3472 87.2959 19.9686C77.3424 27.423 76.1676 28.192 74.8647 28.192C73.9676 28.192 72.7928 27.7221 72.0453 27.0599C71.6181 26.6968 67.5598 20.8016 63.0102 13.988C58.4607 7.17431 54.4665 1.3432 54.1247 1.0228C53.783 0.702412 53.2276 0.339302 52.9072 0.232506C51.9033 -0.151962 50.1732 -0.045166 49.1693 0.446102Z" fill="#FFD700"/>
<path d="M6.19434 69.437C6.19434 73.2389 6.27977 75.3108 6.45065 75.9089C6.7924 77.0195 8.24484 78.4933 9.33417 78.8137C9.91087 78.9846 21.6799 79.0273 51.7326 78.9846L93.298 78.9205L94.2378 78.2797C94.8358 77.8526 95.3485 77.2331 95.7543 76.4856L96.331 75.3108V69.5865V63.8622H51.2627H6.19434V69.437Z" fill="#FFD700"/>
</svg>
