<svg width="73" height="58" viewBox="0 0 73 58" fill="none" xmlns="http://www.w3.org/2000/svg">
<path d="M35.0237 0.380192C34.4151 0.693539 33.913 1.4299 28.3141 10.0626C24.9821 15.2014 22.0153 19.6353 21.711 19.9016C21.1785 20.3873 20.3417 20.732 19.7027 20.732C18.7746 20.732 17.9378 20.1679 10.8479 14.7001C4.54912 9.84322 3.36239 8.98152 2.79946 8.88752C1.27801 8.65251 0 9.79622 0 11.3629C0 11.88 3.83404 38.1226 4.33612 41.0681L4.42741 41.5694H36.5147H68.5867L68.678 41.1464C68.7237 40.8957 69.7278 34.2528 70.9146 26.3722C72.4056 16.3608 73.0294 11.7703 72.9989 11.1279C72.9381 10.3602 72.862 10.1566 72.4208 9.68655C71.797 9.01286 71.0819 8.76218 70.2299 8.88752C69.667 8.98152 68.4802 9.84322 62.1815 14.7001C55.0915 20.1679 54.2547 20.732 53.3267 20.732C52.6876 20.732 51.8508 20.3873 51.3183 19.9016C51.0141 19.6353 48.1233 15.3111 44.8826 10.3132C41.642 5.31538 38.7969 1.03822 38.5534 0.803207C38.31 0.568199 37.9144 0.301857 37.6862 0.223518C36.9711 -0.0584908 35.7387 0.0198441 35.0237 0.380192Z" fill="#FFB743"/>
<path d="M4.41229 50.9854C4.41229 53.7742 4.47315 55.2939 4.59487 55.7326C4.8383 56.5473 5.87288 57.6284 6.64882 57.8634C7.05961 57.9887 15.4428 58.02 36.8495 57.9887L66.4568 57.9417L67.1263 57.4717C67.5523 57.1583 67.9174 56.704 68.2065 56.1556L68.6173 55.2939V51.0951V46.8963H36.5148H4.41229V50.9854Z" fill="#FFB743"/>
</svg>
